<svg xmlns="http://www.w3.org/2000/svg" xmlns:xlink="http://www.w3.org/1999/xlink" width="500" zoomAndPan="magnify" viewBox="0 0 375 374.999991" height="500" preserveAspectRatio="xMidYMid meet" version="1.0"><defs><g/><clipPath id="e57601e833"><path d="M 125.949219 75.054688 L 249.050781 75.054688 L 249.050781 198.152344 L 125.949219 198.152344 Z M 125.949219 75.054688 " clip-rule="nonzero"/></clipPath><clipPath id="3af68c949a"><path d="M 187.5 75.054688 C 153.507812 75.054688 125.949219 102.609375 125.949219 136.601562 C 125.949219 170.59375 153.507812 198.152344 187.5 198.152344 C 221.492188 198.152344 249.050781 170.59375 249.050781 136.601562 C 249.050781 102.609375 221.492188 75.054688 187.5 75.054688 Z M 187.5 75.054688 " clip-rule="nonzero"/></clipPath><clipPath id="e23d16c988"><path d="M 145.839844 108.558594 L 229.285156 108.558594 L 229.285156 181.828125 L 145.839844 181.828125 Z M 145.839844 108.558594 " clip-rule="nonzero"/></clipPath><clipPath id="8cb22b29f4"><path d="M 188.617188 181.039062 L 228.917969 110.511719 C 229.148438 110.109375 229.148438 109.613281 228.914062 109.210938 C 228.679688 108.808594 228.25 108.558594 227.785156 108.558594 L 147.214844 108.558594 C 146.75 108.558594 146.320312 108.808594 146.085938 109.210938 C 145.851562 109.613281 145.851562 110.109375 146.082031 110.511719 L 186.382812 181.039062 C 186.613281 181.441406 187.039062 181.6875 187.5 181.6875 C 187.960938 181.6875 188.386719 181.441406 188.617188 181.039062 Z M 188.617188 181.039062 " clip-rule="nonzero"/></clipPath></defs><g clip-path="url(#e57601e833)"><g clip-path="url(#3af68c949a)"><path fill="#000000" d="M 125.949219 75.054688 L 249.050781 75.054688 L 249.050781 198.152344 L 125.949219 198.152344 Z M 125.949219 75.054688 " fill-opacity="1" fill-rule="nonzero"/></g></g><g clip-path="url(#e23d16c988)"><g clip-path="url(#8cb22b29f4)"><path fill="#ffffff" d="M 144.964844 108.558594 L 230.15625 108.558594 L 230.15625 182.992188 L 144.964844 182.992188 Z M 144.964844 108.558594 " fill-opacity="1" fill-rule="nonzero"/></g></g><g fill="#000000" fill-opacity="1"><g transform="translate(15.049236, 274.783309)"><g><path d="M 35.546875 -33 L 40.015625 -53.15625 L 48.375 -53.15625 L 36.578125 0 L 28.21875 0 L 29.328125 -5.09375 C 27.734375 -3.132812 25.941406 -1.632812 23.953125 -0.59375 C 21.960938 0.4375 19.742188 0.953125 17.296875 0.953125 C 12.941406 0.953125 9.394531 -0.425781 6.65625 -3.1875 C 3.914062 -5.945312 2.546875 -9.851562 2.546875 -14.90625 C 2.546875 -17.9375 3 -20.898438 3.90625 -23.796875 C 4.8125 -26.691406 6.125 -29.320312 7.84375 -31.6875 C 9.570312 -34.050781 11.695312 -35.9375 14.21875 -37.34375 C 16.75 -38.75 19.609375 -39.453125 22.796875 -39.453125 C 25.554688 -39.453125 28.050781 -38.878906 30.28125 -37.734375 C 32.519531 -36.597656 34.273438 -35.019531 35.546875 -33 Z M 11.3125 -16.578125 C 11.3125 -13.492188 12.203125 -11.035156 13.984375 -9.203125 C 15.765625 -7.367188 18.035156 -6.453125 20.796875 -6.453125 C 22.816406 -6.453125 24.71875 -6.984375 26.5 -8.046875 C 28.28125 -9.109375 29.726562 -10.382812 30.84375 -11.875 L 34.1875 -26.78125 C 33.34375 -28.269531 32.03125 -29.519531 30.25 -30.53125 C 28.46875 -31.539062 26.410156 -32.046875 24.078125 -32.046875 C 21.523438 -32.046875 19.289062 -31.3125 17.375 -29.84375 C 15.457031 -28.382812 13.96875 -26.484375 12.90625 -24.140625 C 11.84375 -21.804688 11.3125 -19.285156 11.3125 -16.578125 Z M 11.3125 -16.578125 "/></g></g></g><g fill="#000000" fill-opacity="1"><g transform="translate(61.35611, 274.783309)"><g><path d="M 35.546875 -33 L 36.75 -38.5 L 45.109375 -38.5 L 36.578125 0 L 28.21875 0 L 29.328125 -5.09375 C 27.734375 -3.132812 25.941406 -1.632812 23.953125 -0.59375 C 21.960938 0.4375 19.742188 0.953125 17.296875 0.953125 C 12.941406 0.953125 9.394531 -0.425781 6.65625 -3.1875 C 3.914062 -5.945312 2.546875 -9.851562 2.546875 -14.90625 C 2.546875 -17.9375 3 -20.898438 3.90625 -23.796875 C 4.8125 -26.691406 6.125 -29.320312 7.84375 -31.6875 C 9.570312 -34.050781 11.695312 -35.9375 14.21875 -37.34375 C 16.75 -38.75 19.609375 -39.453125 22.796875 -39.453125 C 25.554688 -39.453125 28.050781 -38.878906 30.28125 -37.734375 C 32.519531 -36.597656 34.273438 -35.019531 35.546875 -33 Z M 11.3125 -16.578125 C 11.3125 -13.492188 12.203125 -11.035156 13.984375 -9.203125 C 15.765625 -7.367188 18.035156 -6.453125 20.796875 -6.453125 C 22.816406 -6.453125 24.71875 -6.984375 26.5 -8.046875 C 28.28125 -9.109375 29.726562 -10.382812 30.84375 -11.875 L 34.1875 -26.78125 C 33.34375 -28.269531 32.03125 -29.519531 30.25 -30.53125 C 28.46875 -31.539062 26.410156 -32.046875 24.078125 -32.046875 C 21.523438 -32.046875 19.289062 -31.3125 17.375 -29.84375 C 15.457031 -28.382812 13.96875 -26.484375 12.90625 -24.140625 C 11.84375 -21.804688 11.3125 -19.285156 11.3125 -16.578125 Z M 11.3125 -16.578125 "/></g></g></g><g fill="#000000" fill-opacity="1"><g transform="translate(107.662983, 274.783309)"><g><path d="M 11 -49.34375 C 11 -51.195312 11.632812 -52.640625 12.90625 -53.671875 C 14.1875 -54.710938 15.488281 -55.234375 16.8125 -55.234375 C 18.195312 -55.234375 19.328125 -54.796875 20.203125 -53.921875 C 21.078125 -53.046875 21.515625 -51.992188 21.515625 -50.765625 C 21.515625 -48.910156 20.875 -47.460938 19.59375 -46.421875 C 18.320312 -45.390625 17.023438 -44.875 15.703125 -44.875 C 14.367188 -44.875 13.25 -45.3125 12.34375 -46.1875 C 11.445312 -47.0625 11 -48.113281 11 -49.34375 Z M 9.484375 0 L 1.109375 0 L 9.640625 -38.5 L 18.015625 -38.5 Z M 9.484375 0 "/></g></g></g><g fill="#000000" fill-opacity="1"><g transform="translate(126.871184, 274.783309)"><g><path d="M 9.484375 0 L 1.109375 0 L 12.828125 -53.15625 L 21.203125 -53.15625 Z M 9.484375 0 "/></g></g></g><g fill="#000000" fill-opacity="1"><g transform="translate(146.079385, 274.783309)"><g><path d="M -3.75 14.75 L -0.953125 7.40625 C 0.00390625 7.832031 1.28125 8.046875 2.875 8.046875 C 3.9375 8.046875 4.863281 7.804688 5.65625 7.328125 C 6.457031 6.847656 7.253906 6.023438 8.046875 4.859375 L 11.078125 0.234375 L 4.0625 -38.5 L 12.75 -38.5 L 17.53125 -9.640625 L 35.234375 -38.5 L 44.46875 -38.5 L 15.78125 6.9375 C 13.8125 10.019531 11.765625 12.238281 9.640625 13.59375 C 7.515625 14.945312 4.992188 15.625 2.078125 15.625 C 1.066406 15.625 0.046875 15.539062 -0.984375 15.375 C -2.023438 15.21875 -2.945312 15.007812 -3.75 14.75 Z M -3.75 14.75 "/></g></g></g><g fill="#000000" fill-opacity="1"><g transform="translate(186.179827, 274.783309)"><g><path d="M 14.90625 -4.0625 L 14.03125 0 L -0.3125 0 L 11.390625 -53.15625 L 25.75 -53.15625 L 21.59375 -34.4375 C 23.300781 -36.289062 24.976562 -37.585938 26.625 -38.328125 C 28.269531 -39.078125 30.078125 -39.453125 32.046875 -39.453125 C 36.347656 -39.453125 39.8125 -38.082031 42.4375 -35.34375 C 45.070312 -32.613281 46.390625 -28.644531 46.390625 -23.4375 C 46.390625 -20.78125 45.976562 -18.03125 45.15625 -15.1875 C 44.332031 -12.34375 43.066406 -9.695312 41.359375 -7.25 C 39.660156 -4.8125 37.550781 -2.832031 35.03125 -1.3125 C 32.507812 0.195312 29.519531 0.953125 26.0625 0.953125 C 23.882812 0.953125 21.785156 0.539062 19.765625 -0.28125 C 17.742188 -1.101562 16.125 -2.363281 14.90625 -4.0625 Z M 31.5625 -20.40625 C 31.5625 -22.3125 30.921875 -23.847656 29.640625 -25.015625 C 28.367188 -26.191406 26.882812 -26.78125 25.1875 -26.78125 C 23.0625 -26.78125 21.125 -25.90625 19.375 -24.15625 L 17.140625 -14.34375 C 18.734375 -12.59375 20.859375 -11.71875 23.515625 -11.71875 C 25.796875 -11.71875 27.707031 -12.550781 29.25 -14.21875 C 30.789062 -15.894531 31.5625 -17.957031 31.5625 -20.40625 Z M 31.5625 -20.40625 "/></g></g></g><g fill="#000000" fill-opacity="1"><g transform="translate(233.682247, 274.783309)"><g><path d="M 14.03125 0 L -0.3125 0 L 8.203125 -38.5 L 22.5625 -38.5 L 21.515625 -34.109375 C 23.003906 -35.648438 24.847656 -36.925781 27.046875 -37.9375 C 29.253906 -38.945312 31.742188 -39.453125 34.515625 -39.453125 L 31.40625 -25.421875 C 31.03125 -25.523438 30.441406 -25.65625 29.640625 -25.8125 C 28.847656 -25.976562 28 -26.0625 27.09375 -26.0625 C 25.613281 -26.0625 24.164062 -25.804688 22.75 -25.296875 C 21.34375 -24.796875 20.109375 -24.066406 19.046875 -23.109375 Z M 14.03125 0 "/></g></g></g><g fill="#000000" fill-opacity="1"><g transform="translate(264.766034, 274.783309)"><g><path d="M 9.796875 -49.34375 C 9.796875 -51.351562 10.273438 -53.035156 11.234375 -54.390625 C 12.191406 -55.753906 13.375 -56.789062 14.78125 -57.5 C 16.1875 -58.21875 17.554688 -58.578125 18.890625 -58.578125 C 21.015625 -58.578125 22.753906 -57.898438 24.109375 -56.546875 C 25.460938 -55.191406 26.140625 -53.585938 26.140625 -51.734375 C 26.140625 -49.765625 25.660156 -48.085938 24.703125 -46.703125 C 23.742188 -45.328125 22.570312 -44.28125 21.1875 -43.5625 C 19.8125 -42.84375 18.4375 -42.484375 17.0625 -42.484375 C 14.9375 -42.484375 13.191406 -43.160156 11.828125 -44.515625 C 10.472656 -45.867188 9.796875 -47.476562 9.796875 -49.34375 Z M 14.03125 0 L -0.3125 0 L 8.203125 -38.5 L 22.5625 -38.5 Z M 14.03125 0 "/></g></g></g><g fill="#000000" fill-opacity="1"><g transform="translate(287.082596, 274.783309)"><g><path d="M 1.203125 -16.578125 C 1.203125 -19.660156 1.757812 -22.566406 2.875 -25.296875 C 3.988281 -28.035156 5.550781 -30.46875 7.5625 -32.59375 C 9.582031 -34.71875 12 -36.390625 14.8125 -37.609375 C 17.632812 -38.835938 20.722656 -39.453125 24.078125 -39.453125 C 27.265625 -39.453125 30.222656 -38.800781 32.953125 -37.5 C 35.691406 -36.195312 37.894531 -34.253906 39.5625 -31.671875 C 41.238281 -29.097656 42.078125 -25.847656 42.078125 -21.921875 C 42.078125 -20.585938 41.984375 -19.253906 41.796875 -17.921875 C 41.617188 -16.597656 41.421875 -15.566406 41.203125 -14.828125 L 15.375 -14.828125 L 15.375 -14.75 C 15.375 -14.582031 15.640625 -14.097656 16.171875 -13.296875 C 16.710938 -12.503906 17.566406 -11.75 18.734375 -11.03125 C 19.898438 -10.320312 21.410156 -9.96875 23.265625 -9.96875 C 24.804688 -9.96875 26.375 -10.140625 27.96875 -10.484375 C 29.5625 -10.828125 30.785156 -11.289062 31.640625 -11.875 L 36.03125 -2.546875 C 34.0625 -1.328125 31.851562 -0.441406 29.40625 0.109375 C 26.96875 0.671875 24.578125 0.953125 22.234375 0.953125 C 18.085938 0.953125 14.429688 0.273438 11.265625 -1.078125 C 8.109375 -2.429688 5.640625 -4.410156 3.859375 -7.015625 C 2.085938 -9.617188 1.203125 -12.804688 1.203125 -16.578125 Z M 16.734375 -23.90625 L 29.40625 -23.90625 L 29.40625 -24.15625 C 29.40625 -24.519531 29.234375 -25.046875 28.890625 -25.734375 C 28.546875 -26.429688 27.945312 -27.070312 27.09375 -27.65625 C 26.25 -28.238281 25.054688 -28.53125 23.515625 -28.53125 C 21.597656 -28.53125 20.054688 -27.972656 18.890625 -26.859375 C 17.722656 -25.742188 17.003906 -24.757812 16.734375 -23.90625 Z M 16.734375 -23.90625 "/></g></g></g><g fill="#000000" fill-opacity="1"><g transform="translate(330.360814, 274.783309)"><g><path d="M 30.53125 -26.0625 L 22.71875 -26.0625 L 16.984375 0 L 2.625 0 L 8.375 -26.0625 L 2 -26.0625 L 4.78125 -38.5 L 11.078125 -38.5 L 11.5625 -40.484375 C 12.195312 -42.984375 13.226562 -45.253906 14.65625 -47.296875 C 16.09375 -49.347656 17.925781 -50.96875 20.15625 -52.15625 C 22.394531 -53.351562 24.972656 -53.953125 27.890625 -53.953125 C 29.429688 -53.953125 31.078125 -53.804688 32.828125 -53.515625 C 34.585938 -53.222656 36.210938 -52.628906 37.703125 -51.734375 L 33 -42.40625 C 32.3125 -43.039062 31.273438 -43.359375 29.890625 -43.359375 C 28.671875 -43.359375 27.738281 -43.066406 27.09375 -42.484375 C 26.457031 -41.898438 26.0625 -41.234375 25.90625 -40.484375 L 25.421875 -38.5 L 33.3125 -38.5 Z M 30.53125 -26.0625 "/></g></g></g></svg>